<?xml version="1.0" standalone="no"?>
<svg version="1.0" id="Слой_1" xmlns="http://www.w3.org/2000/svg"
  viewBox="0 0 1080 1080" style="enable-background:new 0 0 1080 1080;" xml:space="preserve">
    <style type="text/css">
	.st0{fill:#FF0000;stroke:#FF0000;stroke-miterlimit:10;}
	.st1{stroke:#000000;stroke-miterlimit:10;}
	.st2{fill:#FF0000;}
</style>    
<g transform="translate(0.000000,500.000000) scale(0.100000,-0.100000)"
fill="#000000" stroke="none">
<path d="M720 3465 c0 -10 182 -328 198 -347 14 -17 50 -18 485 -18 331 0 481
-3 509 -12 50 -15 123 -79 149 -130 27 -53 35 -133 19 -197 -9 -38 -25 -66
-62 -106 -67 -74 -125 -95 -258 -95 -115 0 -98 -14 -195 160 -87 156 -57 141
-284 139 -108 -1 -200 -3 -204 -6 -4 -3 4 -26 20 -51 15 -26 43 -76 63 -112
75 -133 272 -475 280 -483 4 -5 113 -8 241 -8 262 1 305 8 427 67 52 26 98 59
155 115 45 43 82 77 84 76 1 -2 33 -56 71 -122 38 -66 74 -120 78 -122 5 -2
41 53 79 122 39 69 72 125 75 125 3 0 23 -21 44 -46 47 -56 144 -129 211 -159
106 -47 168 -55 415 -56 128 0 233 1 235 3 1 2 49 84 105 183 57 99 138 242
181 318 44 75 79 141 79 147 0 5 -81 8 -207 7 l-206 -2 -85 -148 -86 -149
-115 4 c-102 3 -122 7 -168 31 -192 100 -201 365 -15 474 l47 28 493 5 493 5
104 180 104 180 -577 3 c-647 3 -681 0 -808 -63 -77 -37 -169 -113 -226 -185
-19 -25 -63 -94 -97 -155 -34 -60 -66 -113 -70 -118 -4 -4 -41 52 -82 124 -41
72 -98 157 -127 189 -68 76 -174 146 -270 179 l-77 26 -612 3 c-337 2 -613 0
-613 -3z"/>
<path d="M1537 1653 c-4 -3 -7 -24 -7 -46 0 -37 -1 -39 -27 -33 -81 21 -137
-84 -80 -149 21 -25 26 -27 80 -20 l57 7 2 47 c1 40 1 81 -1 179 -1 22 -11 28
-24 15z m-13 -135 c20 -58 -28 -112 -70 -78 -17 15 -19 63 -3 91 16 30 61 22
73 -13z"/>
<path d="M2727 1653 c-4 -3 -7 -23 -7 -44 0 -37 0 -38 -35 -32 -29 5 -39 1
-65 -25 -37 -37 -40 -86 -9 -126 19 -24 26 -26 75 -22 30 2 57 6 60 9 4 3 8
189 5 235 -1 13 -14 16 -24 5z m-13 -135 c20 -58 -28 -112 -70 -78 -17 15 -19
63 -3 91 16 30 61 22 73 -13z"/>
<path d="M3144 1647 c-2 -7 -3 -65 -2 -128 2 -93 6 -114 18 -114 12 0 15 20
17 114 0 63 -1 120 -4 128 -7 17 -22 17 -29 0z"/>
<path d="M945 1608 c-2 -7 -15 -57 -29 -111 -22 -91 -21 -126 6 -99 13 13 60
201 53 212 -9 14 -25 12 -30 -2z"/>
<path d="M1970 1604 c0 -9 -8 -23 -17 -30 -17 -13 -17 -15 0 -25 13 -8 17 -23
17 -67 0 -62 11 -82 46 -82 29 0 41 18 17 27 -26 10 -33 23 -33 71 0 36 4 44
26 52 28 11 24 30 -7 30 -12 0 -19 7 -19 20 0 11 -7 20 -15 20 -8 0 -15 -7
-15 -16z"/>
<path d="M3410 1604 c0 -9 -8 -23 -17 -30 -17 -13 -17 -15 0 -25 13 -8 17 -23
17 -67 0 -32 5 -63 12 -70 17 -17 58 -15 58 3 0 8 -6 15 -14 15 -18 0 -26 22
-26 72 0 31 4 41 20 45 11 3 20 12 20 19 0 8 -9 14 -20 14 -13 0 -20 7 -20 20
0 11 -7 20 -15 20 -8 0 -15 -7 -15 -16z"/>
<path d="M674 1566 c-75 -35 -87 -46 -79 -68 8 -19 164 -83 176 -71 17 17 -2
44 -42 60 -22 8 -39 18 -39 22 0 4 19 16 43 27 29 13 42 25 42 39 0 30 -23 28
-101 -9z"/>
<path d="M1102 1575 c2 -23 11 -31 46 -43 23 -7 42 -17 42 -22 0 -5 -19 -15
-42 -22 -35 -12 -44 -20 -46 -43 -3 -25 -1 -27 21 -21 14 3 54 19 91 35 90 41
90 60 -1 101 -37 17 -78 33 -91 37 -21 5 -23 3 -20 -22z"/>
<path d="M1637 1560 c-63 -50 -33 -159 45 -160 88 -1 130 90 69 151 -35 35
-77 38 -114 9z m87 -26 c22 -21 20 -70 -4 -94 -48 -48 -110 41 -63 92 20 22
46 23 67 2z"/>
<path d="M1832 1564 c-33 -23 -26 -64 13 -84 57 -29 52 -56 -10 -52 -36 3 -48
-11 -19 -22 52 -20 104 2 104 44 0 24 -7 33 -40 50 -45 23 -46 52 -1 50 40 -3
44 -1 31 15 -16 20 -50 19 -78 -1z"/>
<path d="M2089 1551 c-84 -84 28 -204 118 -127 23 20 28 32 27 67 -3 83 -87
118 -145 60z m93 -18 c24 -21 23 -68 -2 -93 -33 -33 -80 -6 -80 46 0 56 44 82
82 47z"/>
<path d="M2332 1571 c-7 -4 -24 -6 -38 -3 l-25 4 3 -83 c2 -67 6 -84 18 -84
11 0 16 16 20 60 6 69 13 85 40 85 27 0 34 -16 40 -85 7 -79 24 -72 28 11 2
51 -1 71 -14 85 -18 20 -50 24 -72 10z"/>
<path d="M2828 1573 c-10 -2 -18 -11 -18 -19 0 -11 9 -13 40 -8 36 6 40 4 40
-14 0 -15 -9 -21 -35 -26 -60 -12 -84 -56 -49 -91 12 -12 30 -15 68 -12 l51 4
3 69 c3 61 0 71 -19 86 -21 17 -45 21 -81 11z m72 -99 c0 -3 -5 -14 -10 -25
-14 -25 -60 -26 -60 -1 0 10 3 22 7 25 8 8 63 9 63 1z"/>
<path d="M2965 1571 c-4 -7 5 -45 20 -86 40 -108 59 -109 100 -2 29 78 30 87
11 87 -7 0 -21 -21 -31 -47 -25 -69 -31 -70 -50 -16 -22 57 -39 80 -50 64z"/>
<path d="M3248 1569 c-29 -16 -21 -31 12 -24 19 4 36 2 45 -5 20 -17 12 -27
-30 -34 -59 -11 -84 -56 -49 -90 11 -11 31 -15 70 -13 60 2 64 7 59 72 -2 22
-3 48 -4 57 -2 40 -61 62 -103 37z m72 -102 c0 -20 -22 -37 -47 -37 -22 0 -33
27 -16 43 12 13 63 7 63 -6z"/>
<path d="M3537 1560 c-31 -25 -41 -62 -27 -106 13 -40 35 -54 82 -54 81 1 117
93 59 151 -35 35 -77 38 -114 9z m87 -26 c19 -18 21 -75 4 -92 -19 -19 -66
-15 -78 7 -33 63 28 132 74 85z"/>
<path d="M3696 1572 c-7 -11 41 -143 60 -162 12 -12 16 -12 28 0 20 23 68 152
59 161 -14 14 -30 -5 -48 -59 -9 -30 -21 -50 -25 -45 -5 4 -17 30 -27 57 -17
48 -35 66 -47 48z"/>
<path d="M3937 1573 c-4 -3 -7 -36 -7 -73 0 -86 14 -101 91 -97 l54 3 3 82 c2
52 -1 82 -8 82 -5 0 -13 0 -17 0 -5 0 -10 -27 -13 -61 -5 -65 -22 -88 -54 -76
-12 5 -16 20 -16 65 0 56 -16 92 -33 75z"/>
<path d="M4127 1573 c-15 -15 -5 -23 28 -23 19 0 35 -5 35 -10 0 -6 -18 -36
-41 -66 -26 -36 -38 -59 -31 -66 13 -13 125 -6 130 10 2 8 -9 12 -37 12 -23 0
-41 5 -41 10 0 6 18 35 41 65 22 30 38 59 34 65 -7 11 -108 14 -118 3z"/>
<path d="M2473 1498 c2 -8 20 -13 42 -13 22 0 40 5 43 13 2 8 -10 12 -43 12
-33 0 -45 -4 -42 -12z"/>
<path d="M3855 1431 c-8 -15 3 -31 21 -31 9 0 14 7 12 17 -4 20 -24 28 -33 14z"/>
</g>
</svg>
